<svg width="35" height="35" viewBox="0 0 35 35" fill="none" xmlns="http://www.w3.org/2000/svg">
<g id="Ico_1_3">
<path id="Path" d="M3.09101 33.9999H31C32.6569 33.9999 34 32.6567 34 30.9999V18.6785L33.7461 19.2454C33.1412 20.5468 31.8867 21.3851 30.535 21.3851H20.1772V21.3851C20.0789 22.1474 19.526 22.8015 18.7574 22.7992L16.2271 22.7917C15.4676 22.7894 14.9319 22.1367 14.8228 21.3851V21.3851H4.47253C3.12086 21.3851 1.85882 20.5468 1.2614 19.2454L1 18.6785V31.7644C1.00001 32.9939 1.94095 33.9999 3.09101 33.9999Z" stroke="white"/>
<path id="Path_2" d="M5.44813 31.6428H28.6428C30.2997 31.6428 31.6428 30.2997 31.6428 28.6428V23.3928C31.6428 23.3928 29.5295 23.7423 28.1778 23.7423H21.3558V23.7423C21.2574 24.5049 20.7048 25.1593 19.9359 25.1577L15.0485 25.1476C14.2892 25.146 13.7533 24.4937 13.6442 23.7423V23.7423H6.82964C5.47798 23.7423 3.35712 23.3928 3.35712 23.3928V29.4073C3.35712 30.6368 4.29807 31.6428 5.44813 31.6428Z" stroke="white"/>
<path id="Shape" d="M24.7533 6.0335H24.2533V6.5335H24.7533V6.0335ZM34.5 14.2441L34.9513 14.4594L35 14.3573V14.2441H34.5ZM34.4513 14.3462L34 14.1309V14.1309L34.4513 14.3462ZM32.8534 17.695L33.3046 17.9105L33.3047 17.9103L32.8534 17.695ZM32.8532 17.6955L32.5846 18.1173L33.0609 18.4206L33.3044 17.9111L32.8532 17.6955ZM11.2537 7.0335V7.5335H11.7537V7.0335H11.2537ZM1.5 14.0177H1V14.1309L1.04874 14.2331L1.5 14.0177ZM3.0478 17.2616L2.59653 17.4769L2.59793 17.4798L3.0478 17.2616ZM3.04852 17.2631L3.49799 17.0441L3.49788 17.0438L3.04852 17.2631ZM14.4203 18.1786V18.6786H14.7793L14.8941 18.3384L14.4203 18.1786ZM15.1755 17.1544L14.8831 16.7488L14.8831 16.7488L15.1755 17.1544ZM19.8293 17.1551L20.1227 16.7503H20.1227L19.8293 17.1551ZM20.58 18.1786L20.106 18.3378L20.2205 18.6786H20.58V18.1786ZM31.9504 17.2654L31.4989 17.0506L31.4989 17.0506L31.9504 17.2654ZM31.9507 17.2649L31.4994 17.0496L31.4992 17.05L31.9507 17.2649ZM33.5 14.0177L33.9513 14.2331L34 14.1309V14.0177H33.5ZM23.7533 7.0335H23.2533V7.5335H23.7533V7.0335ZM13.9259 4.85493H13.4259V5.35493H13.9259V4.85493ZM21.0812 4.85493V5.35493H21.5812V4.85493H21.0812ZM22.0812 5.85493V6.35493H22.5812V5.85493H22.0812ZM12.9259 5.85493H12.4259V6.35493H12.9259V5.85493ZM12.9941 0C11.1792 0 9.75375 1.50904 9.75375 3.30457H10.7537C10.7537 2.03302 11.7594 1 12.9941 1V0ZM22.013 0H12.9941V1H22.013V0ZM25.2533 3.30457C25.2533 1.50904 23.8278 0 22.013 0V1C23.2477 1 24.2533 2.03302 24.2533 3.30457H25.2533ZM25.2533 6.0335V3.30457H24.2533V6.0335H25.2533ZM31.924 5.5335H24.7533V6.5335H31.924V5.5335ZM35 8.67673C35 6.97397 33.6583 5.5335 31.924 5.5335V6.5335C33.0731 6.5335 34 7.49282 34 8.67673H35ZM35 14.1309V8.67673H34V14.1309H35ZM35 14.2441V14.1309H34V14.2441H35ZM34.9025 14.5615L34.9513 14.4594L34.0487 14.0288L34 14.1309L34.9025 14.5615ZM33.3047 17.9103L34.9025 14.5615L34 14.1309L32.4022 17.4797L33.3047 17.9103ZM33.3044 17.9111L33.3046 17.9105L32.4023 17.4795L32.402 17.48L33.3044 17.9111ZM33.1218 17.2738L10.5223 2.88282L9.98519 3.72632L32.5846 18.1173L33.1218 17.2738ZM11.7537 3.30457C11.7537 2.56035 12.3363 2 12.9941 2V1C11.7598 1 10.7537 2.0326 10.7537 3.30457H11.7537ZM11.7537 6.5335V3.30457H10.7537V6.5335H11.7537ZM11.7537 7.0335V6.5335H10.7537V7.0335H11.7537ZM10.7537 7.5335H11.2537V6.5335H10.7537V7.5335ZM3.09101 7.5335H10.7537V6.5335H3.09101V7.5335ZM2 8.67673C2 8.02495 2.51407 7.5335 3.09101 7.5335V6.5335C1.94196 6.5335 1 7.4927 1 8.67673H2ZM2 14.0177V8.67673H1V14.0177H2ZM3.49906 17.0463L1.95126 13.8024L1.04874 14.2331L2.59653 17.4769L3.49906 17.0463ZM3.49788 17.0438L3.49766 17.0434L2.59793 17.4798C2.59847 17.4809 2.59896 17.4819 2.59916 17.4824L3.49788 17.0438ZM4.47252 17.6786C4.08234 17.6786 3.68996 17.438 3.49799 17.0441L2.59905 17.4821C2.95058 18.2035 3.68202 18.6786 4.47252 18.6786V17.6786ZM14.4203 17.6786H4.47252V18.6786H14.4203V17.6786ZM14.8831 16.7488C14.4525 17.0591 14.1248 17.4904 13.9465 18.0188L14.8941 18.3384C15.0041 18.0121 15.2027 17.7511 15.4679 17.56L14.8831 16.7488ZM16.7645 16.1846C16.1073 16.1846 15.4358 16.3504 14.8831 16.7488L15.4679 17.56C15.8141 17.3105 16.2677 17.1846 16.7645 17.1846V16.1846ZM18.2431 16.1846H16.7645V17.1846H18.2431V16.1846ZM20.1227 16.7503C19.5711 16.3505 18.9004 16.1846 18.2431 16.1846V17.1846C18.7398 17.1846 19.1916 17.3105 19.5359 17.56L20.1227 16.7503ZM21.054 18.0194C20.8771 17.4927 20.5521 17.0614 20.1227 16.7503L19.5359 17.56C19.7995 17.751 19.9965 18.0117 20.106 18.3378L21.054 18.0194ZM30.535 17.6786H20.58V18.6786H30.535V17.6786ZM31.4989 17.0506C31.316 17.4351 30.9214 17.6786 30.535 17.6786V18.6786C31.3188 18.6786 32.0583 18.2025 32.4019 17.4802L31.4989 17.0506ZM31.4992 17.05L31.4989 17.0506L32.4019 17.4802L32.4022 17.4797L31.4992 17.05ZM33.0487 13.8024L31.4994 17.0496L32.4019 17.4802L33.9513 14.2331L33.0487 13.8024ZM33 8.67673V14.0177H34V8.67673H33ZM31.924 7.5335C32.4921 7.5335 33 8.01592 33 8.67673H34C34 7.49225 33.0726 6.5335 31.924 6.5335V7.5335ZM24.2533 7.5335H31.924V6.5335H24.2533V7.5335ZM23.7533 7.5335H24.2533V6.5335H23.7533V7.5335ZM23.2533 6.5335V7.0335H24.2533V6.5335H23.2533ZM23.2533 3.30457V6.5335H24.2533V3.30457H23.2533ZM22.013 2C22.6708 2 23.2533 2.56035 23.2533 3.30457H24.2533C24.2533 2.0326 23.2473 1 22.013 1V2ZM12.9941 2H22.013V1H12.9941V2ZM9.75375 3.30457V6.0335H10.7537V3.30457H9.75375ZM9.75375 3.30457V6.0335H10.7537V3.30457H9.75375ZM14.4259 4.48314C14.4259 4.59262 14.3316 4.71495 14.1726 4.71495V3.71495C13.7683 3.71495 13.4259 4.05139 13.4259 4.48314H14.4259ZM14.4259 4.85493V4.48314H13.4259V4.85493H14.4259ZM21.0812 4.35493H13.9259V5.35493H21.0812V4.35493ZM20.5812 4.48314V4.85493H21.5812V4.48314H20.5812ZM20.8344 4.71495C20.6754 4.71495 20.5812 4.59262 20.5812 4.48314H21.5812C21.5812 4.05139 21.2387 3.71495 20.8344 3.71495V4.71495ZM14.1726 4.71495H20.8344V3.71495H14.1726V4.71495ZM14.1726 2.71495C13.1803 2.71495 12.4259 3.53545 12.4259 4.48314H13.4259C13.4259 4.05766 13.7622 3.71495 14.1726 3.71495V2.71495ZM20.8344 2.71495H14.1726V3.71495H20.8344V2.71495ZM22.5812 4.48314C22.5812 3.53546 21.8268 2.71495 20.8344 2.71495V3.71495C21.2449 3.71495 21.5812 4.05766 21.5812 4.48314H22.5812ZM22.5812 5.35493V4.48314H21.5812V5.35493H22.5812ZM22.5812 5.85493V5.35493H21.5812V5.85493H22.5812ZM21.5812 6.35493H22.0812V5.35493H21.5812V6.35493ZM13.4259 6.35493H21.5812V5.35493H13.4259V6.35493ZM12.9259 6.35493H13.4259V5.35493H12.9259V6.35493ZM12.4259 5.35493V5.85493H13.4259V5.35493H12.4259ZM12.4259 4.48314V5.35493H13.4259V4.48314H12.4259Z" fill="white"/>
</g>
</svg>
