<svg width="41" height="45" viewBox="0 0 41 45" fill="none" xmlns="http://www.w3.org/2000/svg">
<path fill-rule="evenodd" clip-rule="evenodd" d="M20.5 41C31.8218 41 41 31.8218 41 20.5C41 9.17816 31.8218 0 20.5 0C9.17816 0 0 9.17816 0 20.5C0 31.8218 9.17816 41 20.5 41Z" fill="black"/>
<path d="M21.6577 18.5873V17.381C21.6577 17.1999 21.6667 17.0597 21.6849 16.9606C21.703 16.8613 21.7441 16.7638 21.808 16.6674C21.8719 16.5711 21.9752 16.5046 22.1179 16.4678C22.2608 16.4309 22.4507 16.4125 22.6877 16.4125H23.9819V14H21.9129C20.7158 14 19.856 14.2647 19.3334 14.7942C18.8109 15.3238 18.5496 16.1038 18.5496 17.1346V18.5873H17V21H18.5496V28H21.6577V21H23.7265L24 18.5873H21.6577Z" fill="white"/>
</svg>
