<svg width="35" height="39" viewBox="0 0 35 39" fill="none" xmlns="http://www.w3.org/2000/svg">
<path id="Ico_1_4" d="M24.1242 17.5463L24.4046 17.1322L23.7673 16.7008L23.632 17.4583L24.1242 17.5463ZM25.9249 15.0963L25.444 14.9596L25.444 14.9597L25.9249 15.0963ZM17.2868 24.0931L17.2487 24.5916L17.2774 24.5938L17.3062 24.5927L17.2868 24.0931ZM10.3743 17.2292L10.8684 17.1525L10.8077 16.762L10.4137 16.7308L10.3743 17.2292ZM8.90372 14.683L9.3847 14.5464L9.38469 14.5463L8.90372 14.683ZM9.63814 11.6629L9.59151 12.1607L10.3734 12.234L10.1089 11.4945L9.63814 11.6629ZM9.46115 7.57768L9.94483 7.70509L9.94787 7.69214L9.46115 7.57768ZM11.5585 3.91619L11.9152 4.26677L11.922 4.2595L11.5585 3.91619ZM13.4985 2.31977L13.7653 2.74261L13.7744 2.73689L13.7832 2.73079L13.4985 2.31977ZM15.3833 1.35785L15.5427 1.83177L15.5753 1.8208L15.6061 1.80548L15.3833 1.35785ZM15.3842 1.35742L15.2247 0.883525L15.1922 0.894483L15.1614 0.909795L15.3842 1.35742ZM17.0977 1.03217L17.1208 1.53164L17.1307 1.53118L17.1406 1.53033L17.0977 1.03217ZM21.4009 1.93707L21.1469 2.36775L21.1534 2.3716L21.1601 2.37525L21.4009 1.93707ZM23.4957 3.87602L23.0524 4.10739L23.1818 4.35528L23.4608 4.3748L23.4957 3.87602ZM25.6438 12.1199L25.1545 12.0172L25.0638 12.4494L25.4814 12.5928L25.6438 12.1199ZM34 31.204L34.3524 31.5586L34.5109 31.4011L34.4993 31.178L34 31.204ZM30.8741 26.4734L30.7514 26.9581L30.7514 26.9582L30.8741 26.4734ZM23.369 23.0668L23.656 22.6574L23.0985 22.2666L22.8925 22.9155L23.369 23.0668ZM11.631 23.0672L12.1075 22.9159L11.9015 22.267L11.344 22.6578L11.631 23.0672ZM4.12592 26.4739L4.24859 26.9586L4.24864 26.9586L4.12592 26.4739ZM1 31.204L0.500678 31.1779L0.489047 31.4011L0.647572 31.5586L1 31.204ZM12.3424 25.5337L12.3424 25.0337L12.1959 25.0337L12.0726 25.1128L12.3424 25.5337ZM5.74702 28.2713L5.85975 28.7584L5.85979 28.7584L5.74702 28.2713ZM4.87677 28.4605L4.97909 28.9499H4.97909L4.87677 28.4605ZM3 30.0723L2.50081 30.0438L2.48724 30.2819L2.66376 30.4423L3 30.0723ZM32 30.0723L32.3363 30.4423L32.5128 30.2819L32.4992 30.0438L32 30.0723ZM30.1232 28.4601L30.2255 27.9707H30.2255L30.1232 28.4601ZM29.253 28.2709L29.1402 28.758L29.1402 28.758L29.253 28.2709ZM22.6576 25.5334L22.9274 25.1124L22.8041 25.0334L22.6576 25.0334L22.6576 25.5334ZM20.7441 31.3327L21.2206 31.4841L21.2207 31.484L20.7441 31.3327ZM20.2496 32.8889L19.7775 33.0535L20.2715 34.4711L20.7261 33.0404L20.2496 32.8889ZM20.2422 32.8678L20.7144 32.7032L20.2271 31.3051L19.767 32.7124L20.2422 32.8678ZM19.811 34.1865L19.3397 34.3533L19.8298 35.738L20.2863 34.3419L19.811 34.1865ZM18.4272 30.2766L18.0214 29.9845L17.8686 30.1968L17.9559 30.4434L18.4272 30.2766ZM17.5002 25.6035L17.4788 26.1031L17.5002 26.104L17.5216 26.1031L17.5002 25.6035ZM16.5728 30.2762L17.044 30.4432L17.1315 30.1965L16.9786 29.9841L16.5728 30.2762ZM15.1759 34.2167L14.6999 34.3695L15.1524 35.7797L15.6472 34.3838L15.1759 34.2167ZM14.7487 32.8851L14.2721 33.0364L14.2726 33.0378L14.7487 32.8851ZM23.8439 17.9603C24.014 18.0755 24.2496 18.1706 24.5306 18.1374C24.8096 18.1044 25.0541 17.9541 25.2625 17.7352C25.6603 17.3173 26.0363 16.5341 26.4059 15.233L25.444 14.9597C25.0809 16.238 24.7571 16.8157 24.5382 17.0458C24.438 17.1509 24.3949 17.1464 24.4131 17.1443C24.4333 17.1419 24.4351 17.1529 24.4046 17.1322L23.8439 17.9603ZM17.3062 24.5927C19.8648 24.4934 21.585 23.4881 22.7205 22.109C23.8403 20.7491 24.3612 19.0635 24.6165 17.6342L23.632 17.4583C23.3911 18.8076 22.9134 20.3015 21.9485 21.4734C20.9995 22.626 19.5491 23.5049 17.2674 23.5934L17.3062 24.5927ZM9.8802 17.3059C10.1067 18.7654 10.6276 20.4826 11.7615 21.8923C12.9086 23.3183 14.6555 24.3936 17.2487 24.5916L17.3249 23.5945C15.0015 23.4171 13.5112 22.4719 12.5407 21.2655C11.5571 20.0427 11.08 18.5157 10.8684 17.1525L9.8802 17.3059ZM8.42275 14.8196C8.70716 15.8209 8.99268 16.5038 9.28017 16.9512C9.56111 17.3884 9.90648 17.6938 10.3348 17.7277L10.4137 16.7308C10.4491 16.7336 10.3381 16.7478 10.1215 16.4106C9.91139 16.0837 9.65815 15.5091 9.3847 14.5464L8.42275 14.8196ZM9.68476 11.1651C9.46192 11.1442 9.19004 11.1562 8.9261 11.2715C8.64901 11.3924 8.41763 11.6115 8.27137 11.935C7.99957 12.536 8.03672 13.4607 8.42276 14.8196L9.38469 14.5463C9.00725 13.2177 9.06804 12.6002 9.18254 12.347C9.22942 12.2433 9.28185 12.2073 9.32618 12.1879C9.38365 12.1629 9.47079 12.1494 9.59151 12.1607L9.68476 11.1651ZM8.97764 7.45032C8.61515 8.8265 8.62638 10.319 9.16735 11.8313L10.1089 11.4945C9.64002 10.1837 9.63043 8.898 9.94466 7.70504L8.97764 7.45032ZM11.202 3.56568C10.2352 4.54912 9.35638 5.83901 8.97443 7.46322L9.94787 7.69214C10.2773 6.2911 11.04 5.15698 11.9151 4.2667L11.202 3.56568ZM13.2316 1.89692C12.4977 2.36006 11.8058 2.92619 11.195 3.57288L11.922 4.2595C12.4747 3.67431 13.1015 3.16147 13.7653 2.74261L13.2316 1.89692ZM15.2239 0.883934C14.4851 1.13242 13.8143 1.49278 13.2138 1.90874L13.7832 2.73079C14.3201 2.35891 14.9073 2.04546 15.5427 1.83177L15.2239 0.883934ZM15.1614 0.909795L15.1605 0.910226L15.6061 1.80548L15.607 1.80504L15.1614 0.909795ZM17.0745 0.532711C16.4193 0.563109 15.8017 0.689379 15.2247 0.883525L15.5436 1.83131C16.0398 1.66436 16.5657 1.55739 17.1208 1.53164L17.0745 0.532711ZM21.6549 1.5064C20.5553 0.857898 19.036 0.363287 17.0547 0.53402L17.1406 1.53033C18.8986 1.37884 20.2119 1.81634 21.1469 2.36775L21.6549 1.5064ZM23.4957 3.87602C23.9389 3.64465 23.9388 3.64448 23.9387 3.6443C23.9387 3.64424 23.9386 3.64406 23.9386 3.64393C23.9384 3.64367 23.9383 3.6434 23.9381 3.64311C23.9378 3.64253 23.9375 3.64188 23.9371 3.64116C23.9363 3.63973 23.9354 3.63803 23.9344 3.63607C23.9323 3.63214 23.9296 3.62715 23.9262 3.62116C23.9196 3.60916 23.9105 3.59312 23.8989 3.57336C23.8756 3.53386 23.8422 3.47946 23.7978 3.41294C23.7091 3.27996 23.5764 3.09806 23.3934 2.88965C23.0275 2.47276 22.4596 1.94842 21.6417 1.4989L21.1601 2.37525C21.8605 2.76022 22.34 3.20535 22.6419 3.54932C22.7928 3.72133 22.8991 3.8677 22.9659 3.96788C22.9993 4.01794 23.0228 4.05635 23.037 4.0805C23.0441 4.09258 23.0489 4.10107 23.0514 4.10567C23.0527 4.10796 23.0534 4.10928 23.0536 4.10958C23.0537 4.10973 23.0536 4.10963 23.0534 4.10927C23.0533 4.10908 23.0532 4.10884 23.053 4.10852C23.0529 4.10837 23.0529 4.1082 23.0528 4.10801C23.0527 4.10791 23.0526 4.10776 23.0526 4.10771C23.0525 4.10755 23.0524 4.10739 23.4957 3.87602ZM26.1332 12.2225C26.9823 8.17429 26.4676 5.94736 25.6065 4.71966C25.1758 4.10555 24.6759 3.76862 24.2721 3.5866C24.0716 3.49621 23.8964 3.44469 23.7669 3.4154C23.7021 3.40074 23.6484 3.39159 23.6083 3.38591C23.5882 3.38307 23.5715 3.38109 23.5585 3.37973C23.552 3.37905 23.5464 3.37852 23.5417 3.37812C23.5394 3.37792 23.5373 3.37774 23.5354 3.3776C23.5345 3.37753 23.5336 3.37746 23.5328 3.3774C23.5324 3.37737 23.5319 3.37733 23.5317 3.37731C23.5311 3.37728 23.5306 3.37724 23.4957 3.87602C23.4608 4.3748 23.4603 4.37476 23.4598 4.37473C23.4597 4.37472 23.4592 4.37468 23.4589 4.37466C23.4583 4.37462 23.4578 4.37458 23.4573 4.37455C23.4564 4.37447 23.4557 4.37441 23.4552 4.37437C23.4542 4.37428 23.454 4.37426 23.4547 4.37433C23.456 4.37447 23.4606 4.37496 23.4681 4.37603C23.4831 4.37816 23.5099 4.38254 23.5463 4.39077C23.6193 4.40727 23.7296 4.43895 23.8611 4.49826C24.1215 4.61563 24.4724 4.84408 24.7878 5.29387C25.4191 6.19398 25.9785 8.08899 25.1545 12.0172L26.1332 12.2225ZM26.4059 15.233C26.7112 14.1588 26.7932 13.3723 26.6933 12.8018C26.5871 12.1945 26.2644 11.8043 25.8062 11.647L25.4814 12.5928C25.5377 12.6121 25.6536 12.6616 25.7083 12.9741C25.7694 13.3235 25.7347 13.9368 25.444 14.9596L26.4059 15.233ZM33.6476 30.8493C29.512 34.9591 23.805 37.5 17.5002 37.5V38.5C24.0791 38.5 30.0368 35.8474 34.3524 31.5586L33.6476 30.8493ZM30.7514 26.9582C32.8164 27.4809 33.4079 29.4488 33.5007 31.23L34.4993 31.178C34.403 29.3292 33.7608 26.6884 30.9968 25.9887L30.7514 26.9582ZM23.369 23.0668C23.082 23.4762 23.0821 23.4763 23.0822 23.4764C23.0823 23.4764 23.0824 23.4765 23.0825 23.4765C23.0827 23.4767 23.0829 23.4769 23.0832 23.4771C23.0838 23.4775 23.0847 23.4781 23.0857 23.4788C23.0877 23.4802 23.0906 23.4822 23.0942 23.4847C23.1015 23.4898 23.112 23.497 23.1257 23.5064C23.1531 23.525 23.193 23.5521 23.2449 23.5866C23.3486 23.6555 23.5002 23.7543 23.6945 23.8757C24.083 24.1184 24.6433 24.4521 25.3346 24.8187C26.7145 25.5506 28.6294 26.4209 30.7514 26.9581L30.9968 25.9887C28.9782 25.4777 27.1405 24.6446 25.8031 23.9353C25.1357 23.5813 24.596 23.2598 24.2243 23.0276C24.0385 22.9115 23.8949 22.8179 23.7985 22.7538C23.7503 22.7217 23.7139 22.6971 23.6899 22.6807C23.6779 22.6725 23.6691 22.6664 23.6634 22.6625C23.6605 22.6605 23.6585 22.6591 23.6573 22.6582C23.6567 22.6578 23.6562 22.6575 23.656 22.6574C23.6559 22.6573 23.6559 22.6573 23.6559 22.6573C23.6559 22.6573 23.6559 22.6573 23.6559 22.6573C23.6559 22.6573 23.656 22.6574 23.369 23.0668ZM23.0623 25.6847L23.8456 23.2181L22.8925 22.9155L22.1092 25.3821L23.0623 25.6847ZM22.5857 25.0334L12.4142 25.0337L12.4143 26.0337L22.5857 26.0334L22.5857 25.0334ZM11.1544 23.2185L11.9377 25.6851L12.8908 25.3824L12.1075 22.9159L11.1544 23.2185ZM4.24864 26.9586C6.37055 26.4214 8.28546 25.5511 9.66544 24.8192C10.3567 24.4525 10.917 24.1189 11.3055 23.8761C11.4998 23.7547 11.6514 23.656 11.7551 23.587C11.807 23.5525 11.8469 23.5255 11.8743 23.5068C11.888 23.4974 11.8985 23.4902 11.9058 23.4851C11.9094 23.4826 11.9123 23.4806 11.9143 23.4792C11.9153 23.4785 11.9162 23.4779 11.9168 23.4775C11.9171 23.4773 11.9173 23.4771 11.9175 23.477C11.9176 23.4769 11.9177 23.4768 11.9178 23.4768C11.9179 23.4767 11.918 23.4767 11.631 23.0672C11.344 22.6578 11.3441 22.6577 11.3441 22.6577C11.3441 22.6577 11.3441 22.6577 11.3441 22.6577C11.3441 22.6577 11.3441 22.6577 11.344 22.6578C11.3438 22.6579 11.3433 22.6582 11.3427 22.6587C11.3415 22.6595 11.3395 22.6609 11.3366 22.6629C11.3309 22.6668 11.3221 22.6729 11.3101 22.6811C11.2861 22.6975 11.2497 22.7222 11.2015 22.7542C11.1051 22.8183 10.9615 22.912 10.7757 23.028C10.404 23.2603 9.86428 23.5817 9.19689 23.9357C7.85947 24.6451 6.02185 25.4781 4.0032 25.9892L4.24864 26.9586ZM1.49932 31.23C1.59213 29.4492 2.18321 27.4813 4.24859 26.9586L4.00324 25.9892C1.23877 26.6888 0.597001 29.3297 0.500678 31.1779L1.49932 31.23ZM17.5002 37.5C11.1955 37.5 5.48839 34.9591 1.35243 30.8493L0.647572 31.5586C4.96365 35.8474 10.9213 38.5 17.5002 38.5V37.5ZM12.4142 25.0337L12.3424 25.0337L12.3424 26.0337L12.4142 26.0337L12.4142 25.0337ZM12.3424 25.5337C12.0726 25.1128 12.0726 25.1128 12.0727 25.1127C12.0727 25.1127 12.0727 25.1127 12.0727 25.1127C12.0727 25.1127 12.0727 25.1127 12.0726 25.1128C12.0725 25.1129 12.0721 25.1131 12.0716 25.1134C12.0706 25.1141 12.0688 25.1152 12.0664 25.1167C12.0615 25.1198 12.0538 25.1247 12.0433 25.1312C12.0225 25.1442 11.9907 25.1639 11.9485 25.1896C11.8642 25.2408 11.7384 25.3158 11.5755 25.4089C11.2497 25.595 10.7765 25.8528 10.191 26.1367C9.01781 26.7057 7.40549 27.3741 5.63425 27.7841L5.85979 28.7584C7.72723 28.326 9.41259 27.6257 10.6274 27.0365C11.236 26.7413 11.7293 26.4727 12.0716 26.2772C12.2428 26.1794 12.3764 26.0997 12.4679 26.0441C12.5137 26.0162 12.549 25.9944 12.5732 25.9793C12.5853 25.9717 12.5947 25.9658 12.6012 25.9617C12.6045 25.9596 12.607 25.958 12.6089 25.9568C12.6098 25.9562 12.6105 25.9558 12.6111 25.9554C12.6113 25.9552 12.6116 25.9551 12.6118 25.955C12.6119 25.9549 12.612 25.9548 12.612 25.9548C12.6121 25.9548 12.6122 25.9547 12.3424 25.5337ZM5.63429 27.7841C5.31408 27.8582 5.03016 27.9176 4.77446 27.9711L4.97909 28.9499C5.23437 28.8965 5.5279 28.8352 5.85975 28.7584L5.63429 27.7841ZM4.77446 27.9711C4.42904 28.0433 4.11916 28.1077 3.86049 28.1827C3.60162 28.2576 3.35095 28.3545 3.13823 28.5129C2.66631 28.8645 2.53783 29.3942 2.50081 30.0438L3.49919 30.1007C3.5325 29.5162 3.63862 29.3871 3.73561 29.3149C3.80734 29.2615 3.9247 29.2052 4.1387 29.1432C4.3529 29.0811 4.62071 29.0248 4.97909 28.9499L4.77446 27.9711ZM2.66376 30.4423C6.47042 33.9011 11.716 36.0334 17.5002 36.0334V35.0334C11.9624 35.0334 6.95713 32.9922 3.33624 29.7022L2.66376 30.4423ZM17.5002 36.0334C23.2844 36.0334 28.53 33.9011 32.3363 30.4423L31.6637 29.7022C28.0432 32.9922 23.038 35.0334 17.5002 35.0334V36.0334ZM32.4992 30.0438C32.4622 29.394 32.3336 28.8643 31.8617 28.5127C31.649 28.3542 31.3983 28.2573 31.1394 28.1823C30.8807 28.1074 30.5709 28.0429 30.2255 27.9707L30.0208 28.9496C30.3792 29.0245 30.647 29.0808 30.8611 29.1429C31.0751 29.2048 31.1925 29.2612 31.2643 29.3146C31.3613 29.3869 31.4675 29.5161 31.5008 30.1007L32.4992 30.0438ZM30.2255 27.9707C29.9698 27.9173 29.6859 27.8579 29.3657 27.7838L29.1402 28.758C29.4721 28.8348 29.7656 28.8962 30.0208 28.9496L30.2255 27.9707ZM29.3658 27.7838C27.5945 27.3737 25.9822 26.7054 24.809 26.1364C24.2235 25.8524 23.7502 25.5946 23.4245 25.4085C23.2616 25.3155 23.1358 25.2405 23.0515 25.1892C23.0093 25.1636 22.9775 25.1439 22.9567 25.1309C22.9462 25.1243 22.9385 25.1195 22.9336 25.1164C22.9312 25.1148 22.9294 25.1137 22.9284 25.1131C22.9279 25.1127 22.9275 25.1125 22.9274 25.1124C22.9273 25.1124 22.9273 25.1123 22.9273 25.1123C22.9273 25.1123 22.9273 25.1124 22.9273 25.1124C22.9274 25.1124 22.9274 25.1124 22.6576 25.5334C22.3878 25.9543 22.3879 25.9544 22.388 25.9545C22.388 25.9545 22.3881 25.9546 22.3882 25.9546C22.3884 25.9547 22.3887 25.9549 22.3889 25.9551C22.3895 25.9554 22.3902 25.9559 22.3911 25.9565C22.393 25.9576 22.3955 25.9593 22.3988 25.9613C22.4053 25.9655 22.4147 25.9713 22.4268 25.9789C22.451 25.9941 22.4863 26.0159 22.5321 26.0437C22.6236 26.0994 22.7572 26.179 22.9284 26.2768C23.2707 26.4724 23.764 26.741 24.3726 27.0361C25.5874 27.6253 27.2728 28.3257 29.1402 28.758L29.3658 27.7838ZM22.6576 25.0334L22.5857 25.0334L22.5857 26.0334L22.6576 26.0334L22.6576 25.0334ZM21.2207 31.484L23.0623 25.6847L22.1092 25.3821L20.2676 31.1814L21.2207 31.484ZM20.7261 33.0404L21.2206 31.4841L20.2676 31.1813L19.7731 32.7375L20.7261 33.0404ZM19.7701 33.0323L19.7775 33.0535L20.7218 32.7244L20.7144 32.7032L19.7701 33.0323ZM20.2863 34.3419L20.7175 33.0232L19.767 32.7124L19.3358 34.0311L20.2863 34.3419ZM17.9559 30.4434L19.3397 34.3533L20.2824 34.0196L18.8986 30.1098L17.9559 30.4434ZM17.5002 25.6035C17.5216 26.1031 17.5213 26.1031 17.5211 26.1031C17.521 26.1031 17.5208 26.1031 17.5207 26.1031C17.5205 26.1031 17.5204 26.1031 17.5203 26.1031C17.5201 26.1031 17.5202 26.1031 17.5205 26.1031C17.5212 26.1031 17.5229 26.103 17.5255 26.103C17.5307 26.1028 17.5398 26.1027 17.5522 26.1026C17.5772 26.1024 17.6157 26.1027 17.6647 26.1045C17.7634 26.1083 17.9018 26.1184 18.0575 26.1435C18.3821 26.196 18.7217 26.3044 18.9553 26.5001C19.1572 26.6692 19.3208 26.9339 19.2624 27.4376C19.1996 27.9798 18.8764 28.7969 18.0214 29.9845L18.833 30.5687C19.7282 29.3252 20.1642 28.3426 20.2557 27.5527C20.3517 26.7244 20.0647 26.1248 19.5974 25.7334C19.1617 25.3685 18.6132 25.2204 18.2171 25.1563C18.0125 25.1233 17.8323 25.1102 17.7025 25.1053C17.6374 25.1028 17.5841 25.1024 17.5459 25.1026C17.5268 25.1027 17.5114 25.103 17.5001 25.1033C17.4945 25.1034 17.4899 25.1036 17.4863 25.1037C17.4845 25.1038 17.483 25.1038 17.4818 25.1039C17.4812 25.1039 17.4806 25.1039 17.4801 25.1039C17.4799 25.1039 17.4796 25.104 17.4794 25.104C17.4791 25.104 17.4789 25.104 17.5002 25.6035ZM16.9786 29.9841C16.1237 28.7965 15.8006 27.9795 15.7379 27.4373C15.6796 26.9337 15.8431 26.669 16.045 26.4999C16.2786 26.3043 16.6183 26.1959 16.9428 26.1435C17.0986 26.1183 17.237 26.1082 17.3357 26.1045C17.3847 26.1027 17.4232 26.1024 17.4482 26.1026C17.4606 26.1027 17.4697 26.1028 17.4749 26.103C17.4775 26.103 17.4792 26.1031 17.4799 26.1031C17.4802 26.1031 17.4803 26.1031 17.4801 26.1031C17.48 26.1031 17.4799 26.1031 17.4797 26.1031C17.4796 26.1031 17.4793 26.1031 17.4793 26.1031C17.4791 26.1031 17.4788 26.1031 17.5002 25.6035C17.5216 25.104 17.5213 25.104 17.521 25.104C17.5209 25.104 17.5206 25.1039 17.5204 25.1039C17.5199 25.1039 17.5193 25.1039 17.5187 25.1039C17.5175 25.1038 17.516 25.1038 17.5142 25.1037C17.5106 25.1036 17.506 25.1034 17.5003 25.1033C17.489 25.103 17.4737 25.1027 17.4545 25.1026C17.4164 25.1024 17.3631 25.1028 17.298 25.1052C17.1682 25.1101 16.988 25.1232 16.7834 25.1563C16.3873 25.2202 15.8388 25.3683 15.4031 25.7331C14.9357 26.1244 14.6486 26.724 14.7445 27.5523C14.8359 28.3421 15.2719 29.3248 16.167 30.5683L16.9786 29.9841ZM15.6472 34.3838L17.044 30.4432L16.1015 30.1091L14.7047 34.0496L15.6472 34.3838ZM14.2726 33.0378L14.6999 34.3695L15.652 34.0639L15.2248 32.7323L14.2726 33.0378ZM11.9377 25.6851L14.2721 33.0364L15.2252 32.7337L12.8908 25.3824L11.9377 25.6851Z" fill="white"/>
</svg>
