<svg width="41" height="45" viewBox="0 0 41 45" fill="none" xmlns="http://www.w3.org/2000/svg">
<path fill-rule="evenodd" clip-rule="evenodd" d="M20.5 41C31.8218 41 41 31.8218 41 20.5C41 9.17816 31.8218 0 20.5 0C9.17816 0 0 9.17816 0 20.5C0 31.8218 9.17816 41 20.5 41Z" fill="black"/>
<path fill-rule="evenodd" clip-rule="evenodd" d="M14 20C14 16.6863 16.6863 14 20 14H22C25.3137 14 28 16.6863 28 20V22C28 25.3137 25.3137 28 22 28H20C16.6863 28 14 25.3137 14 22V20ZM17.1818 21C17.1818 23.1087 18.8913 24.8182 21 24.8182C23.1087 24.8182 24.8182 23.1087 24.8182 21C24.8182 18.8913 23.1087 17.1818 21 17.1818C18.8913 17.1818 17.1818 18.8913 17.1818 21ZM23.4706 21C23.4706 22.3645 22.3645 23.4706 21 23.4706C19.6355 23.4706 18.5294 22.3645 18.5294 21C18.5294 19.6355 19.6355 18.5294 21 18.5294C22.3645 18.5294 23.4706 19.6355 23.4706 21ZM26.0909 16.8636C26.0909 17.3908 25.6635 17.8182 25.1364 17.8182C24.6092 17.8182 24.1818 17.3908 24.1818 16.8636C24.1818 16.3365 24.6092 15.9091 25.1364 15.9091C25.6635 15.9091 26.0909 16.3365 26.0909 16.8636Z" fill="white"/>
</svg>
