<svg width="35" height="35" viewBox="0 0 35 35" fill="none" xmlns="http://www.w3.org/2000/svg">
<g id="Ico_1_1">
<path id="Shape" d="M4.71676 20.3423L5.07031 19.9887L4.71676 20.3423ZM4.71676 4.71676L4.36488 4.36151L4.36153 4.3649L4.71676 4.71676ZM18.9249 21.5638L18.6349 21.1564L18.9249 21.5638ZM19.2687 21.3191L19.6216 20.9649L19.3227 20.667L18.9788 20.9117L19.2687 21.3191ZM19.5677 21.617L19.9206 21.2628L19.5677 21.617ZM31.0458 33.0539L30.6929 33.4081L30.693 33.4082L31.0458 33.0539ZM31.0505 33.0586L31.3932 33.4227L31.7692 33.0688L31.4033 32.7043L31.0505 33.0586ZM31.0505 33.0587L30.7078 32.6946L30.3368 33.0437L30.6929 33.4081L31.0505 33.0587ZM32.0852 33.4974L32.0524 32.9984H32.0524L32.0852 33.4974ZM33.0391 33.0391L32.6856 32.6856L32.6856 32.6856L33.0391 33.0391ZM33.4974 32.0852L32.9984 32.0524V32.0524L33.4974 32.0852ZM33.0587 31.0505L32.7091 31.4079L32.7092 31.4081L33.0587 31.0505ZM33.0539 31.0458L32.7003 30.6923L32.3428 31.0498L32.7043 31.4033L33.0539 31.0458ZM33.0539 31.0458L33.4075 31.3993L33.7604 31.0464L33.4081 30.6929L33.0539 31.0458ZM21.617 19.5677L21.2628 19.9206L21.617 19.5677ZM21.3191 19.2687L20.9117 18.9788L20.667 19.3227L20.9649 19.6216L21.3191 19.2687ZM21.5638 18.9249L21.1564 18.6349L21.5638 18.9249ZM20.3423 4.71676L19.9887 5.07031L20.3423 4.71676ZM21.0494 4.00965L20.6958 4.3632V4.3632L21.0494 4.00965ZM4.01127 4.00804L3.65485 4.35871L4.00677 4.7164L4.3632 4.3632L4.01127 4.00804ZM22.6179 19.1555L22.2006 18.8801L21.9763 19.22L22.2637 19.5084L22.6179 19.1555ZM33.7576 30.3353L33.4034 30.6882L33.4079 30.6926L33.7576 30.3353ZM33.76 30.3376L34.1099 29.9804L34.1097 29.9803L33.76 30.3376ZM34.4952 32.1508L34.9941 32.1836V32.1836L34.4952 32.1508ZM32.1508 34.4952L32.1836 34.9941H32.1836L32.1508 34.4952ZM30.3376 33.76L29.9803 34.1097L29.9804 34.1099L30.3376 33.76ZM30.3353 33.7576L30.6927 33.4078L30.6882 33.4034L30.3353 33.7576ZM19.1555 22.6179L19.5084 22.2637L19.22 21.9763L18.8801 22.2006L19.1555 22.6179ZM4.00965 21.0494L4.3632 20.6958H4.3632L4.00965 21.0494ZM4.00804 4.01127L3.65288 3.65932L3.65288 3.65933L4.00804 4.01127ZM4.01125 4.00803L4.36767 3.65736L4.01253 3.2964L3.6561 3.65608L4.01125 4.00803ZM17.7294 15.1581L17.2859 14.9272L17.2807 14.9373L17.2759 14.9475L17.7294 15.1581ZM16.7926 9.33797L16.3931 9.63865L16.4153 9.66811L16.4415 9.694L16.7926 9.33797ZM17.6684 15.6416L18.123 15.4336L18.123 15.4336L17.6684 15.6416ZM17.9309 15.8397L17.7903 16.3195L17.7903 16.3195L17.9309 15.8397ZM18.8002 15.4298L18.3446 15.224L18.3446 15.224L18.8002 15.4298ZM18.8096 15.4091L18.3745 15.1628L18.3633 15.1826L18.3539 15.2033L18.8096 15.4091ZM18.8208 15.3893L18.3857 15.143L18.3857 15.143L18.8208 15.3893ZM19.3022 11.8065L18.8085 11.8857L19.3022 11.8065ZM17.7916 8.54279L17.438 8.89634V8.89634L17.7916 8.54279ZM17.7674 8.51864L17.3691 8.82083L17.3897 8.84804L17.4139 8.87219L17.7674 8.51864ZM17.7468 8.49143L18.1451 8.18924L18.1451 8.18923L17.7468 8.49143ZM16.7378 8.28334L16.4635 7.86526L16.7378 8.28334ZM16.5194 8.62752L17.0168 8.6782L16.5194 8.62752ZM18.5217 7.85885L18.1288 8.16812L18.1461 8.19005L18.1657 8.20991L18.5217 7.85885ZM16.1893 7.44717L15.9151 7.02908L16.1893 7.44717ZM15.5245 8.52618L16.0219 8.57685L15.5245 8.52618ZM16.022 9.97656L16.4173 9.67028H16.4173L16.022 9.97656ZM16.0438 10.0047L15.6486 10.3109L15.6704 10.339L15.6959 10.3638L16.0438 10.0047ZM16.0694 10.0294L16.4173 9.67028L16.4173 9.67028L16.0694 10.0294ZM16.8383 14.7042L16.3954 14.4722L16.3954 14.4722L16.8383 14.7042ZM16.8335 14.7134L16.3906 14.4814L16.3858 14.4905L16.3814 14.4999L16.8335 14.7134ZM16.8291 14.7227L16.377 14.5092L16.3769 14.5092L16.8291 14.7227ZM16.759 16.0577L17.2137 15.8497V15.8497L16.759 16.0577ZM17.6497 16.7994L17.7903 16.3195H17.7903L17.6497 16.7994ZM19.7017 15.863L19.2654 15.6188L19.2564 15.6349L19.2486 15.6516L19.7017 15.863ZM20.2896 11.6481L20.7833 11.5689L20.2896 11.6481ZM19.3626 5.73754L19.0091 6.09109L19.0091 6.09111L19.3626 5.73754ZM5.73754 5.73754L6.09109 6.09109L5.73754 5.73754ZM19.3647 5.73958L19.6977 6.11255L20.0924 5.76014L19.7182 5.386L19.3647 5.73958ZM19.3647 5.73958L19.0317 5.36662L18.6393 5.71697L19.0091 6.09109L19.3647 5.73958ZM19.3647 19.3606L19.7202 19.7121L19.7203 19.7121L19.3647 19.3606ZM19.3606 19.3647L18.9999 19.711L19.3553 20.0812L19.7162 19.7162L19.3606 19.3647ZM19.3606 19.3647L19.7213 19.0184L19.3699 18.6524L19.0091 19.0091L19.3606 19.3647ZM5.73958 19.3647L5.3871 19.7193L5.38808 19.7203L5.73958 19.3647ZM5.73754 19.3626L5.38398 19.7162L5.38506 19.7173L5.73754 19.3626ZM6.44464 6.44464L6.09109 6.09109L6.44464 6.44464ZM18.6546 6.44367L19.0102 6.09222L19.0081 6.09006L18.6546 6.44367ZM6.44367 18.6546L6.09005 19.0081L6.09223 19.0102L6.44367 18.6546ZM18.6555 18.6555L19.0069 19.0113L19.0112 19.0069L18.6555 18.6555ZM5.07031 19.9887C0.978827 15.8972 0.973737 9.20615 5.072 5.06862L4.36153 4.3649C-0.121088 8.89046 -0.120489 16.2121 4.3632 20.6958L5.07031 19.9887ZM18.6349 21.1564C14.4689 24.1215 8.71812 23.6365 5.07031 19.9887L4.3632 20.6958C8.35381 24.6864 14.6482 25.2212 19.2148 21.9712L18.6349 21.1564ZM18.9788 20.9117L18.6349 21.1564L19.2148 21.9712L19.5586 21.7264L18.9788 20.9117ZM19.9206 21.2628L19.6216 20.9649L18.9158 21.6733L19.2148 21.9712L19.9206 21.2628ZM31.3987 32.6997L19.9206 21.2628L19.2148 21.9712L30.6929 33.4081L31.3987 32.6997ZM31.4033 32.7043L31.3986 32.6997L30.693 33.4082L30.6977 33.4129L31.4033 32.7043ZM31.3931 33.4228L31.3932 33.4227L30.7078 32.6945L30.7078 32.6946L31.3931 33.4228ZM32.0524 32.9984C31.8758 33.0101 31.6539 32.9608 31.4081 32.7092L30.6929 33.4081C31.1352 33.8608 31.6392 34.0278 32.118 33.9963L32.0524 32.9984ZM32.6856 32.6856C32.4905 32.8807 32.2566 32.985 32.0524 32.9984L32.118 33.9963C32.5966 33.9648 33.0505 33.7349 33.3927 33.3927L32.6856 32.6856ZM32.9984 32.0524C32.985 32.2566 32.8807 32.4905 32.6856 32.6856L33.3927 33.3927C33.7349 33.0505 33.9648 32.5966 33.9963 32.118L32.9984 32.0524ZM32.7092 31.4081C32.9608 31.6539 33.0101 31.8758 32.9984 32.0524L33.9963 32.118C34.0278 31.6392 33.8608 31.1352 33.4081 30.6929L32.7092 31.4081ZM32.7043 31.4033L32.7091 31.4079L33.4082 30.693L33.4035 30.6883L32.7043 31.4033ZM32.7004 30.6922L32.7003 30.6923L33.4075 31.3994L33.4075 31.3993L32.7004 30.6922ZM21.2628 19.9206L32.6997 31.3987L33.4081 30.6929L21.9712 19.2148L21.2628 19.9206ZM20.9649 19.6216L21.2628 19.9206L21.9712 19.2148L21.6733 18.9158L20.9649 19.6216ZM21.1564 18.6349L20.9117 18.9788L21.7264 19.5586L21.9712 19.2148L21.1564 18.6349ZM19.9887 5.07031C23.6365 8.71812 24.1215 14.4689 21.1564 18.6349L21.9712 19.2148C25.2212 14.6482 24.6864 8.35381 20.6958 4.3632L19.9887 5.07031ZM5.06862 5.072C9.20615 0.973737 15.8972 0.978827 19.9887 5.07031L20.6958 4.3632C16.2121 -0.120489 8.89046 -0.121088 4.3649 4.36153L5.06862 5.072ZM21.4029 3.6561C16.5263 -1.22049 8.57271 -1.21583 3.65933 3.65288L4.3632 4.3632C8.88864 -0.121087 16.2116 -0.121049 20.6958 4.3632L21.4029 3.6561ZM23.0353 19.4309C26.2905 14.498 25.6315 7.88468 21.4029 3.6561L20.6958 4.3632C24.5897 8.25711 25.1934 14.3449 22.2006 18.8801L23.0353 19.4309ZM34.1118 29.9824L22.9721 18.8026L22.2637 19.5084L33.4034 30.6882L34.1118 29.9824ZM34.1097 29.9803C34.1092 29.9798 34.1087 29.9793 34.1083 29.9789C34.1079 29.9785 34.1076 29.9782 34.1073 29.9779L33.4079 30.6926C33.4084 30.6931 33.4089 30.6936 33.4093 30.694C33.4097 30.6944 33.41 30.6947 33.4103 30.695L34.1097 29.9803ZM34.9941 32.1836C35.0455 31.4034 34.7612 30.6185 34.1099 29.9804L33.4101 30.6948C33.8612 31.1367 34.0277 31.6398 33.9963 32.118L34.9941 32.1836ZM34.0998 34.0998C34.5883 33.6113 34.9445 32.9375 34.9941 32.1836L33.9963 32.118C33.9648 32.5967 33.7348 33.0506 33.3927 33.3927L34.0998 34.0998ZM32.1836 34.9941C32.9375 34.9445 33.6113 34.5883 34.0998 34.0998L33.3927 33.3927C33.0506 33.7348 32.5967 33.9648 32.118 33.9963L32.1836 34.9941ZM29.9804 34.1099C30.6185 34.7612 31.4034 35.0455 32.1836 34.9941L32.118 33.9963C31.6398 34.0277 31.1367 33.8612 30.6948 33.4101L29.9804 34.1099ZM29.9779 34.1073C29.9782 34.1076 29.9785 34.1079 29.9789 34.1083C29.9793 34.1087 29.9798 34.1092 29.9803 34.1097L30.695 33.4103C30.6947 33.41 30.6944 33.4097 30.694 33.4093C30.6936 33.4089 30.6931 33.4084 30.6926 33.4079L29.9779 34.1073ZM18.8026 22.9721L29.9824 34.1118L30.6882 33.4034L19.5084 22.2637L18.8026 22.9721ZM3.6561 21.4029C7.88468 25.6315 14.498 26.2905 19.4309 23.0353L18.8801 22.2006C14.3449 25.1934 8.25711 24.5897 4.3632 20.6958L3.6561 21.4029ZM3.65288 3.65933C-1.21583 8.57271 -1.22049 16.5263 3.6561 21.4029L4.3632 20.6958C-0.121049 16.2116 -0.121087 8.88864 4.3632 4.3632L3.65288 3.65933ZM3.6561 3.65608L3.65288 3.65932L4.3632 4.36321L4.36641 4.35997L3.6561 3.65608ZM4.36768 3.65737L4.36767 3.65736L3.65484 4.35869L3.65485 4.35871L4.36768 3.65737ZM18.1729 15.389C19.2796 13.263 18.735 10.5511 17.1436 8.98193L16.4415 9.694C17.7375 10.9718 18.1789 13.2117 17.2859 14.9272L18.1729 15.389ZM18.123 15.4336C18.1308 15.4506 18.1355 15.4661 18.138 15.4789C18.1405 15.4916 18.1401 15.4983 18.1402 15.4975C18.1403 15.4957 18.1426 15.4555 18.1829 15.3687L17.2759 14.9475C17.1052 15.3152 17.1084 15.6196 17.2137 15.8497L18.123 15.4336ZM18.0714 15.3599C18.0543 15.3549 18.0578 15.3528 18.0714 15.3637C18.0849 15.3745 18.1061 15.3965 18.123 15.4336L17.2137 15.8496C17.3201 16.0821 17.533 16.2442 17.7903 16.3195L18.0714 15.3599ZM18.3446 15.224C18.3129 15.2941 18.2678 15.3301 18.2221 15.3493C18.17 15.3711 18.1134 15.3722 18.0714 15.3599L17.7903 16.3195C18.3051 16.4704 18.9702 16.2683 19.2559 15.6356L18.3446 15.224ZM18.3539 15.2033L18.3446 15.224L19.2559 15.6356L19.2653 15.6149L18.3539 15.2033ZM18.3857 15.143L18.3745 15.1628L19.2447 15.6554L19.2559 15.6356L18.3857 15.143ZM18.8085 11.8857C19.0059 13.1157 18.8583 14.308 18.3857 15.143L19.2559 15.6356C19.873 14.5455 20.017 13.1056 19.7959 11.7273L18.8085 11.8857ZM17.438 8.89634C18.095 9.55335 18.6112 10.656 18.8085 11.8857L19.7959 11.7273C19.5747 10.349 18.9885 9.03256 18.1451 8.18923L17.438 8.89634ZM17.4139 8.87219L17.438 8.89634L18.1451 8.18923L18.121 8.16508L17.4139 8.87219ZM17.3484 8.79362L17.3691 8.82083L18.1658 8.21644L18.1451 8.18924L17.3484 8.79362ZM17.012 8.70143C17.081 8.65615 17.2352 8.64428 17.3484 8.79362L18.1451 8.18923C17.6947 7.59545 16.9448 7.54959 16.4635 7.86526L17.012 8.70143ZM17.0168 8.6782C17.0166 8.67956 17.0161 8.68319 17.0143 8.68824C17.0126 8.69332 17.0102 8.69813 17.0077 8.70216C17.0021 8.71086 17.0001 8.70926 17.012 8.70143L16.4635 7.86526C16.2231 8.02294 16.0533 8.26904 16.0219 8.57685L17.0168 8.6782ZM17.1921 9.03728C16.9993 8.78112 17.0182 8.6642 17.0168 8.6782L16.0219 8.57685C15.9913 8.87718 16.0924 9.23913 16.3931 9.63865L17.1921 9.03728ZM18.9146 7.54957C18.1158 6.53496 16.788 6.45652 15.9151 7.02908L16.4635 7.86526C16.9376 7.55433 17.6763 7.59324 18.1288 8.16812L18.9146 7.54957ZM15.9151 7.02908C15.4541 7.33142 15.0926 7.83262 15.0271 8.4755L16.0219 8.57685C16.0534 8.26809 16.224 8.02237 16.4635 7.86526L15.9151 7.02908ZM15.0271 8.4755C14.9625 9.1096 15.1995 9.73146 15.6268 10.2828L16.4173 9.67028C16.0981 9.25849 15.9905 8.88567 16.0219 8.57685L15.0271 8.4755ZM15.6268 10.2828L15.6486 10.3109L16.439 9.69838L16.4173 9.67028L15.6268 10.2828ZM15.6959 10.3638L15.7215 10.3885L16.4173 9.67028L16.3917 9.64554L15.6959 10.3638ZM15.7215 10.3885C16.736 11.3713 17.0844 13.1568 16.3954 14.4722L17.2812 14.9362C18.1862 13.2086 17.7339 10.9458 16.4173 9.67028L15.7215 10.3885ZM16.3954 14.4722L16.3906 14.4814L17.2764 14.9454L17.2812 14.9362L16.3954 14.4722ZM16.3814 14.4999L16.377 14.5092L17.2812 14.9362L17.2856 14.9269L16.3814 14.4999ZM16.3769 14.5092C16.1091 15.0764 16.0456 15.7002 16.3044 16.2657L17.2137 15.8497C17.1066 15.6157 17.106 15.3073 17.2812 14.9362L16.3769 14.5092ZM16.3044 16.2657C16.5562 16.8162 17.0365 17.1408 17.5092 17.2792L17.7903 16.3195C17.535 16.2448 17.3208 16.0837 17.2137 15.8497L16.3044 16.2657ZM17.5092 17.2792C18.4177 17.5454 19.625 17.2101 20.1548 16.0744L19.2486 15.6516C18.9582 16.2741 18.2977 16.4682 17.7903 16.3195L17.5092 17.2792ZM20.138 16.1072C20.8892 14.7651 21.0269 13.0873 20.7833 11.5689L19.7959 11.7273C20.0159 13.0983 19.8745 14.5306 19.2654 15.6188L20.138 16.1072ZM20.7833 11.5689C20.5403 10.0546 19.8927 8.5371 18.8777 7.50778L18.1657 8.20991C18.9982 9.05416 19.5766 10.3606 19.7959 11.7273L20.7833 11.5689ZM19.7162 5.38398C15.7465 1.41427 9.3537 1.41427 5.38398 5.38398L6.09109 6.09109C9.67028 2.5119 15.4299 2.5119 19.0091 6.09109L19.7162 5.38398ZM19.7182 5.386L19.7162 5.38396L19.0091 6.09111L19.0111 6.09315L19.7182 5.386ZM19.6977 6.11255L19.6977 6.11255L19.0317 5.36661L19.0317 5.36662L19.6977 6.11255ZM19.7203 19.7121C23.6434 15.7433 23.6434 9.35684 19.7203 5.38808L19.0091 6.09109C22.5471 9.67028 22.5471 15.4299 19.0091 19.0091L19.7203 19.7121ZM19.7162 19.7162L19.7202 19.7121L19.0091 19.0091L19.005 19.0132L19.7162 19.7162ZM18.9999 19.7109L18.9999 19.711L19.7213 19.0184L19.7213 19.0184L18.9999 19.7109ZM5.38808 19.7203C9.35684 23.6434 15.7433 23.6434 19.7121 19.7203L19.0091 19.0091C15.4299 22.5471 9.67028 22.5471 6.09109 19.0091L5.38808 19.7203ZM5.38506 19.7173L5.38711 19.7193L6.09206 19.01L6.09001 19.008L5.38506 19.7173ZM5.38398 5.38398C1.41427 9.3537 1.41427 15.7465 5.38398 19.7162L6.09109 19.0091C2.5119 15.4299 2.5119 9.67028 6.09109 6.09109L5.38398 5.38398ZM6.7982 6.7982C9.98656 3.60984 15.1123 3.60953 18.3011 6.79728L19.0081 6.09006C15.4288 2.5119 9.66993 2.51224 6.09109 6.09109L6.7982 6.7982ZM6.79728 18.3011C3.60953 15.1123 3.60984 9.98656 6.7982 6.7982L6.09109 6.09109C2.51224 9.66993 2.5119 15.4288 6.09006 19.0081L6.79728 18.3011ZM18.3041 18.2998C15.1147 21.4505 9.98416 21.4502 6.79511 18.2989L6.09223 19.0102C9.67077 22.5464 15.4279 22.5468 19.0069 19.0112L18.3041 18.2998ZM18.2989 6.79511C21.4502 9.98416 21.4505 15.1147 18.2998 18.3041L19.0112 19.0069C22.5468 15.4279 22.5464 9.67077 19.0102 6.09223L18.2989 6.79511Z" fill="white"/>
</g>
</svg>
