<svg width="31" height="42" viewBox="0 0 31 42" fill="none" xmlns="http://www.w3.org/2000/svg">
<g id="Ico_1_2">
<path id="Shape" d="M11.7455 3.11869L11.786 3.61705L12.0983 3.59171L12.2116 3.29966L11.7455 3.11869ZM19.2533 3.11993L18.7872 3.30077L18.9005 3.59297L19.2129 3.6183L19.2533 3.11993ZM22.4416 5.06639L22.0205 5.3361L22.1681 5.56639H22.4416V5.06639ZM30.5 11.4939H31V11.4937L30.5 11.4939ZM8.55736 5.06514V5.56514H8.83073L8.97828 5.33501L8.55736 5.06514ZM12.5882 3.74481L12.1081 3.60508V3.60508L12.5882 3.74481ZM12.4833 4.10508V4.60508H12.8586L12.9634 4.24481L12.4833 4.10508ZM9.27998 5.80561L8.84161 5.56514V5.56514L9.27998 5.80561ZM9.13762 6.06514V6.56514H9.43363L9.576 6.30561L9.13762 6.06514ZM29.5 11.4941H30V11.4939L29.5 11.4941ZM21.861 6.06639L21.4225 6.30666L21.5648 6.56639H21.861V6.06639ZM21.7187 5.80666L22.1572 5.56639L22.1572 5.56639L21.7187 5.80666ZM18.5153 4.10633L18.0352 4.24595L18.14 4.60633H18.5153V4.10633ZM18.4105 3.74595L17.9304 3.88558V3.88558L18.4105 3.74595ZM13.5095 3.33899L13.9328 3.60508L13.5095 3.33899ZM17.4901 3.33829L17.913 3.07151L17.4901 3.33829ZM17.9739 4.10508V4.60508H18.8805L18.3967 3.83829L17.9739 4.10508ZM13.0279 4.10508L12.6046 3.83899L12.123 4.60508H13.0279V4.10508ZM27.8417 34.5736V34.0736H27.3417V34.5736H27.8417ZM27.8429 34.5736V35.0736H28.3429V34.5736H27.8429ZM23.1331 7.7602V7.2602H22.6704L22.6346 7.72153L23.1331 7.7602ZM7.86693 7.7602L8.36543 7.72153L8.32965 7.2602H7.86693V7.7602ZM28.8159 35.5736V35.0736H28.365L28.3186 35.5221L28.8159 35.5736ZM8.89338 6.7602L9.39284 6.78346L9.41722 6.2602H8.89338V6.7602ZM8.869 7.28346L9.36846 7.30673V7.30673L8.869 7.28346ZM8.86226 7.36061L9.3585 7.42184V7.42183L8.86226 7.36061ZM8.85649 7.40315L9.35145 7.47396L9.35146 7.47391L8.85649 7.40315ZM8.85575 7.40835L9.35082 7.47838L9.35083 7.47834L8.85575 7.40835ZM8.85365 7.42411L8.35729 7.36393L8.35359 7.39445L8.35366 7.42521L8.85365 7.42411ZM22.1463 7.42354L22.6463 7.42456L22.6464 7.39387L22.6427 7.3634L22.1463 7.42354ZM22.1443 7.40829L22.6393 7.33779L22.6392 7.33721L22.1443 7.40829ZM22.1436 7.40307L22.6385 7.33199L22.6385 7.33188L22.1436 7.40307ZM22.1378 7.36089L21.6416 7.42256L21.6416 7.42259L22.1378 7.36089ZM22.131 7.28346L22.6305 7.26021V7.2602L22.131 7.28346ZM22.1066 6.7602V6.2602H21.5828L21.6072 6.78346L22.1066 6.7602ZM28.8429 35.5736V36.0736H29.3429V35.5736H28.8429ZM15.4994 0C13.5574 0 11.9382 1.24107 11.2794 2.93772L12.2116 3.29966C12.7333 1.9562 14.0028 1 15.4994 1V0ZM19.7195 2.9391C19.0608 1.2413 17.4415 0 15.4994 0V1C16.996 1 18.2656 1.95626 18.7872 3.30077L19.7195 2.9391ZM22.8626 4.79669C22.0926 3.59476 20.8065 2.74424 19.2937 2.62157L19.2129 3.6183C20.3909 3.71382 21.4058 4.37649 22.0205 5.3361L22.8626 4.79669ZM24.1983 4.56639H22.4416V5.56639H24.1983V4.56639ZM31 11.4937C30.9986 7.69366 27.9692 4.56639 24.1983 4.56639V5.56639C27.3961 5.56639 29.9988 8.22498 30 11.4941L31 11.4937ZM31 11.4941V11.4939H30V11.4941H31ZM31 35.0723V11.4941H30V35.0723H31ZM24.1995 42C27.9703 42 31 38.8727 31 35.0723H30C30 38.3414 27.3973 41 24.1995 41V42ZM6.80049 42H24.1995V41H6.80049V42ZM0 35.0723C0 38.8727 3.02967 42 6.80049 42V41C3.60269 41 1 38.3414 1 35.0723H0ZM0 11.4928V35.0723H1V11.4928H0ZM6.80049 4.56514C3.02967 4.56514 0 7.69242 0 11.4928H1C1 8.22373 3.60269 5.56514 6.80049 5.56514V4.56514ZM8.55736 4.56514H6.80049V5.56514H8.55736V4.56514ZM11.7051 2.62033C10.192 2.74314 8.90616 3.59476 8.13645 4.79527L8.97828 5.33501C9.59303 4.37619 10.608 3.71266 11.786 3.61705L11.7051 2.62033ZM13.0683 3.88454C13.3902 2.77857 14.3692 2 15.4994 2V1C13.8917 1 12.5449 2.10453 12.1081 3.60508L13.0683 3.88454ZM12.9634 4.24481L13.0683 3.88454L12.1081 3.60508L12.0033 3.96535L12.9634 4.24481ZM12.1081 4.60508H12.4833V3.60508H12.1081V4.60508ZM12.0824 4.60508H12.1081V3.60508H12.0824V4.60508ZM9.71836 6.04608C10.1966 5.17418 11.0796 4.60508 12.0824 4.60508V3.60508C10.6837 3.60508 9.48014 4.40109 8.84161 5.56514L9.71836 6.04608ZM9.576 6.30561L9.71836 6.04608L8.84161 5.56514L8.69924 5.82468L9.576 6.30561ZM8.84161 6.56514H9.13762V5.56514H8.84161V6.56514ZM6.80049 6.56514H8.84161V5.56514H6.80049V6.56514ZM2 11.4928C2 8.75607 4.17472 6.56514 6.80049 6.56514V5.56514C3.60274 5.56514 1 8.22369 1 11.4928H2ZM2 35.0723V11.4928H1V35.0723H2ZM6.80049 40C4.17472 40 2 37.8091 2 35.0723H1C1 38.3415 3.60274 41 6.80049 41V40ZM24.1995 40H6.80049V41H24.1995V40ZM29 35.0723C29 37.8091 26.8253 40 24.1995 40V41C27.3973 41 30 38.3415 30 35.0723H29ZM29 11.4943V35.0723H30V11.4943H29ZM29 11.4941C29 11.4941 29 11.4941 29 11.4941C29 11.4941 29 11.4941 29 11.4941V11.4941C29 11.4941 29 11.4941 29 11.4941C29 11.4941 29 11.4941 29 11.4941V11.4941C29 11.4941 29 11.4941 29 11.4941C29 11.4941 29 11.4941 29 11.4941C29 11.4941 29 11.4941 29 11.4941C29 11.4941 29 11.4941 29 11.4941V11.4941C29 11.4941 29 11.4941 29 11.4941C29 11.4941 29 11.4941 29 11.4941V11.4941C29 11.4941 29 11.4941 29 11.4941V11.4941C29 11.4941 29 11.4941 29 11.4941C29 11.4941 29 11.4941 29 11.4941V11.4941C29 11.4941 29 11.4941 29 11.4941C29 11.4941 29 11.4941 29 11.4941V11.4941C29 11.4941 29 11.4941 29 11.4941V11.4941C29 11.4941 29 11.4941 29 11.4941C29 11.4941 29 11.4941 29 11.4941V11.4941C29 11.4941 29 11.4941 29 11.4941C29 11.4941 29 11.4941 29 11.4941C29 11.4941 29 11.4941 29 11.4941C29 11.4941 29 11.4941 29 11.4941V11.4941C29 11.4941 29 11.4941 29 11.4941C29 11.4941 29 11.4941 29 11.4941V11.4941C29 11.4941 29 11.4941 29 11.4941V11.4941C29 11.4941 29 11.4941 29 11.4941C29 11.4941 29 11.4941 29 11.4941V11.4941C29 11.4941 29 11.4941 29 11.4941V11.4941C29 11.4941 29 11.4941 29 11.4941C29 11.4941 29 11.4941 29 11.4941V11.4941C29 11.4941 29 11.4941 29 11.4941C29 11.4941 29 11.4941 29 11.4941C29 11.4941 29 11.4941 29 11.4941C29 11.4941 29 11.4941 29 11.4941V11.4941C29 11.4941 29 11.4941 29 11.4941C29 11.4941 29 11.4941 29 11.4941V11.4941C29 11.4941 29 11.4941 29 11.4941V11.4941C29 11.4941 29 11.4941 29 11.4941C29 11.4941 29 11.4941 29 11.4941V11.4941C29 11.4941 29 11.4941 29 11.4941V11.4941C29 11.4941 29 11.4941 29 11.4941C29 11.4941 29 11.4941 29 11.4941V11.4941C29 11.4941 29 11.4941 29 11.4941C29 11.4941 29 11.4941 29 11.4941C29 11.4941 29 11.4941 29 11.4941C29 11.4941 29 11.4941 29 11.4941V11.4941C29 11.4941 29 11.4941 29 11.4941C29 11.4941 29 11.4941 29 11.4941C29 11.4941 29 11.4941 29 11.4941C29 11.4941 29 11.4941 29 11.4941V11.4941C29 11.4941 29 11.4941 29 11.4941C29 11.4941 29 11.4941 29 11.4941V11.4942C29 11.4942 29 11.4942 29 11.4942V11.4942C29 11.4942 29 11.4942 29 11.4942C29 11.4942 29 11.4942 29 11.4942V11.4942C29 11.4942 29 11.4942 29 11.4942V11.4942C29 11.4942 29 11.4942 29 11.4942C29 11.4942 29 11.4942 29 11.4942V11.4942C29 11.4942 29 11.4942 29 11.4942V11.4942C29 11.4942 29 11.4942 29 11.4942C29 11.4942 29 11.4942 29 11.4942V11.4942C29 11.4942 29 11.4942 29 11.4942C29 11.4942 29 11.4942 29 11.4942C29 11.4942 29 11.4942 29 11.4942C29 11.4942 29 11.4942 29 11.4942V11.4942C29 11.4942 29 11.4942 29 11.4942C29 11.4942 29 11.4942 29 11.4942C29 11.4942 29 11.4942 29 11.4942C29 11.4942 29 11.4942 29 11.4942V11.4942C29 11.4942 29 11.4942 29 11.4942C29 11.4942 29 11.4942 29 11.4942C29 11.4942 29 11.4942 29 11.4942C29 11.4942 29 11.4942 29 11.4942V11.4942C29 11.4942 29 11.4942 29 11.4942C29 11.4942 29 11.4942 29 11.4942V11.4942C29 11.4942 29 11.4942 29 11.4942V11.4942C29 11.4942 29 11.4942 29 11.4942C29 11.4942 29 11.4942 29 11.4942V11.4942C29 11.4942 29 11.4942 29 11.4942V11.4942C29 11.4942 29 11.4942 29 11.4942C29 11.4942 29 11.4942 29 11.4942V11.4942C29 11.4942 29 11.4942 29 11.4942V11.4942C29 11.4942 29 11.4942 29 11.4942C29 11.4942 29 11.4942 29 11.4942V11.4942C29 11.4942 29 11.4942 29 11.4942C29 11.4942 29 11.4942 29 11.4942C29 11.4942 29 11.4942 29 11.4942C29 11.4942 29 11.4942 29 11.4942V11.4942C29 11.4942 29 11.4942 29 11.4942C29 11.4942 29 11.4942 29 11.4942C29 11.4942 29 11.4942 29 11.4942C29 11.4942 29 11.4942 29 11.4942V11.4942C29 11.4942 29 11.4942 29 11.4942C29 11.4942 29 11.4942 29 11.4942V11.4942C29 11.4942 29 11.4942 29 11.4942V11.4942C29 11.4942 29 11.4942 29 11.4942C29 11.4942 29 11.4942 29 11.4942V11.4942C29 11.4942 29 11.4942 29 11.4942V11.4942C29 11.4942 29 11.4942 29 11.4942C29 11.4942 29 11.4942 29 11.4942V11.4942C29 11.4942 29 11.4942 29 11.4942C29 11.4942 29 11.4942 29 11.4942C29 11.4942 29 11.4942 29 11.4942C29 11.4942 29 11.4942 29 11.4942V11.4942C29 11.4942 29 11.4942 29 11.4942C29 11.4942 29 11.4942 29 11.4942V11.4942C29 11.4942 29 11.4942 29 11.4942V11.4942C29 11.4942 29 11.4942 29 11.4942C29 11.4942 29 11.4942 29 11.4942V11.4942C29 11.4942 29 11.4942 29 11.4942V11.4942C29 11.4942 29 11.4942 29 11.4942C29 11.4942 29 11.4942 29 11.4942V11.4942C29 11.4942 29 11.4942 29 11.4942C29 11.4942 29 11.4942 29 11.4942C29 11.4942 29 11.4942 29 11.4942C29 11.4942 29 11.4942 29 11.4942V11.4942C29 11.4942 29 11.4942 29 11.4942C29 11.4942 29 11.4942 29 11.4942V11.4942C29 11.4942 29 11.4942 29 11.4942V11.4942C29 11.4942 29 11.4942 29 11.4942C29 11.4942 29 11.4942 29 11.4942V11.4942C29 11.4942 29 11.4942 29 11.4942C29 11.4942 29 11.4942 29 11.4942V11.4943C29 11.4943 29 11.4943 29 11.4943V11.4943C29 11.4943 29 11.4943 29 11.4943C29 11.4943 29 11.4943 29 11.4943V11.4943C29 11.4943 29 11.4943 29 11.4943C29 11.4943 29 11.4943 29 11.4943C29 11.4943 29 11.4943 29 11.4943C29 11.4943 29 11.4943 29 11.4943V11.4943C29 11.4943 29 11.4943 29 11.4943C29 11.4943 29 11.4943 29 11.4943V11.4943C29 11.4943 29 11.4943 29 11.4943C29 11.4943 29 11.4943 29 11.4943H30C30 11.4943 30 11.4943 30 11.4943C30 11.4943 30 11.4943 30 11.4943V11.4943C30 11.4943 30 11.4943 30 11.4943C30 11.4943 30 11.4943 30 11.4943V11.4943C30 11.4943 30 11.4943 30 11.4943C30 11.4943 30 11.4943 30 11.4943C30 11.4943 30 11.4943 30 11.4943C30 11.4943 30 11.4943 30 11.4943V11.4943C30 11.4943 30 11.4943 30 11.4943C30 11.4943 30 11.4943 30 11.4943V11.4943C30 11.4943 30 11.4943 30 11.4943V11.4942C30 11.4942 30 11.4942 30 11.4942C30 11.4942 30 11.4942 30 11.4942V11.4942C30 11.4942 30 11.4942 30 11.4942C30 11.4942 30 11.4942 30 11.4942V11.4942C30 11.4942 30 11.4942 30 11.4942V11.4942C30 11.4942 30 11.4942 30 11.4942C30 11.4942 30 11.4942 30 11.4942V11.4942C30 11.4942 30 11.4942 30 11.4942C30 11.4942 30 11.4942 30 11.4942C30 11.4942 30 11.4942 30 11.4942C30 11.4942 30 11.4942 30 11.4942V11.4942C30 11.4942 30 11.4942 30 11.4942C30 11.4942 30 11.4942 30 11.4942V11.4942C30 11.4942 30 11.4942 30 11.4942V11.4942C30 11.4942 30 11.4942 30 11.4942C30 11.4942 30 11.4942 30 11.4942V11.4942C30 11.4942 30 11.4942 30 11.4942V11.4942C30 11.4942 30 11.4942 30 11.4942C30 11.4942 30 11.4942 30 11.4942V11.4942C30 11.4942 30 11.4942 30 11.4942C30 11.4942 30 11.4942 30 11.4942C30 11.4942 30 11.4942 30 11.4942C30 11.4942 30 11.4942 30 11.4942V11.4942C30 11.4942 30 11.4942 30 11.4942C30 11.4942 30 11.4942 30 11.4942V11.4942C30 11.4942 30 11.4942 30 11.4942V11.4942C30 11.4942 30 11.4942 30 11.4942C30 11.4942 30 11.4942 30 11.4942V11.4942C30 11.4942 30 11.4942 30 11.4942V11.4942C30 11.4942 30 11.4942 30 11.4942C30 11.4942 30 11.4942 30 11.4942V11.4942C30 11.4942 30 11.4942 30 11.4942C30 11.4942 30 11.4942 30 11.4942C30 11.4942 30 11.4942 30 11.4942C30 11.4942 30 11.4942 30 11.4942V11.4942C30 11.4942 30 11.4942 30 11.4942C30 11.4942 30 11.4942 30 11.4942C30 11.4942 30 11.4942 30 11.4942C30 11.4942 30 11.4942 30 11.4942V11.4942C30 11.4942 30 11.4942 30 11.4942C30 11.4942 30 11.4942 30 11.4942V11.4942C30 11.4942 30 11.4942 30 11.4942V11.4942C30 11.4942 30 11.4942 30 11.4942C30 11.4942 30 11.4942 30 11.4942V11.4942C30 11.4942 30 11.4942 30 11.4942V11.4942C30 11.4942 30 11.4942 30 11.4942C30 11.4942 30 11.4942 30 11.4942V11.4942C30 11.4942 30 11.4942 30 11.4942V11.4942C30 11.4942 30 11.4942 30 11.4942C30 11.4942 30 11.4942 30 11.4942V11.4942C30 11.4942 30 11.4942 30 11.4942C30 11.4942 30 11.4942 30 11.4942C30 11.4942 30 11.4942 30 11.4942C30 11.4942 30 11.4942 30 11.4942V11.4942C30 11.4942 30 11.4942 30 11.4942C30 11.4942 30 11.4942 30 11.4942C30 11.4942 30 11.4942 30 11.4942C30 11.4942 30 11.4942 30 11.4942V11.4942C30 11.4942 30 11.4942 30 11.4942C30 11.4942 30 11.4942 30 11.4942C30 11.4942 30 11.4942 30 11.4942C30 11.4942 30 11.4942 30 11.4942V11.4942C30 11.4942 30 11.4942 30 11.4942C30 11.4942 30 11.4942 30 11.4942V11.4942C30 11.4942 30 11.4942 30 11.4942V11.4942C30 11.4942 30 11.4942 30 11.4942C30 11.4942 30 11.4942 30 11.4942V11.4942C30 11.4942 30 11.4942 30 11.4942V11.4942C30 11.4942 30 11.4942 30 11.4942C30 11.4942 30 11.4942 30 11.4942V11.4942C30 11.4942 30 11.4942 30 11.4942V11.4941C30 11.4941 30 11.4941 30 11.4941C30 11.4941 30 11.4941 30 11.4941V11.4941C30 11.4941 30 11.4941 30 11.4941C30 11.4941 30 11.4941 30 11.4941C30 11.4941 30 11.4941 30 11.4941C30 11.4941 30 11.4941 30 11.4941V11.4941C30 11.4941 30 11.4941 30 11.4941C30 11.4941 30 11.4941 30 11.4941C30 11.4941 30 11.4941 30 11.4941C30 11.4941 30 11.4941 30 11.4941V11.4941C30 11.4941 30 11.4941 30 11.4941C30 11.4941 30 11.4941 30 11.4941V11.4941C30 11.4941 30 11.4941 30 11.4941V11.4941C30 11.4941 30 11.4941 30 11.4941C30 11.4941 30 11.4941 30 11.4941V11.4941C30 11.4941 30 11.4941 30 11.4941V11.4941C30 11.4941 30 11.4941 30 11.4941C30 11.4941 30 11.4941 30 11.4941V11.4941C30 11.4941 30 11.4941 30 11.4941C30 11.4941 30 11.4941 30 11.4941C30 11.4941 30 11.4941 30 11.4941C30 11.4941 30 11.4941 30 11.4941V11.4941C30 11.4941 30 11.4941 30 11.4941C30 11.4941 30 11.4941 30 11.4941V11.4941C30 11.4941 30 11.4941 30 11.4941V11.4941C30 11.4941 30 11.4941 30 11.4941C30 11.4941 30 11.4941 30 11.4941V11.4941C30 11.4941 30 11.4941 30 11.4941V11.4941C30 11.4941 30 11.4941 30 11.4941C30 11.4941 30 11.4941 30 11.4941V11.4941C30 11.4941 30 11.4941 30 11.4941C30 11.4941 30 11.4941 30 11.4941C30 11.4941 30 11.4941 30 11.4941C30 11.4941 30 11.4941 30 11.4941V11.4941C30 11.4941 30 11.4941 30 11.4941C30 11.4941 30 11.4941 30 11.4941V11.4941C30 11.4941 30 11.4941 30 11.4941V11.4941C30 11.4941 30 11.4941 30 11.4941C30 11.4941 30 11.4941 30 11.4941V11.4941C30 11.4941 30 11.4941 30 11.4941C30 11.4941 30 11.4941 30 11.4941V11.4941C30 11.4941 30 11.4941 30 11.4941V11.4941C30 11.4941 30 11.4941 30 11.4941C30 11.4941 30 11.4941 30 11.4941V11.4941C30 11.4941 30 11.4941 30 11.4941C30 11.4941 30 11.4941 30 11.4941C30 11.4941 30 11.4941 30 11.4941C30 11.4941 30 11.4941 30 11.4941V11.4941C30 11.4941 30 11.4941 30 11.4941C30 11.4941 30 11.4941 30 11.4941V11.4941C30 11.4941 30 11.4941 30 11.4941C30 11.4941 30 11.4941 30 11.4941H29ZM24.1983 6.56639C26.8239 6.56639 28.9989 8.75724 29 11.4943L30 11.4939C29.9987 8.22482 27.396 5.56639 24.1983 5.56639V6.56639ZM22.1572 6.56639H24.1983V5.56639H22.1572V6.56639ZM21.861 6.56639H22.1572V5.56639H21.861V6.56639ZM21.2802 6.04693L21.4225 6.30666L22.2995 5.82612L22.1572 5.56639L21.2802 6.04693ZM18.9163 4.60633C19.9197 4.60633 20.8022 5.17459 21.2802 6.04693L22.1572 5.56639C21.5186 4.40109 20.3151 3.60633 18.9163 3.60633V4.60633ZM18.8906 4.60633H18.9163V3.60633H18.8906V4.60633ZM18.5153 4.60633H18.8906V3.60633H18.5153V4.60633ZM17.9304 3.88558L18.0352 4.24595L18.9955 3.96671L18.8906 3.60633L17.9304 3.88558ZM15.4994 2C16.6294 2 17.6084 2.77837 17.9304 3.88558L18.8906 3.60633C18.4539 2.10453 17.1071 1 15.4994 1V2ZM15.4994 1.6938C14.4298 1.6938 13.5723 2.29949 13.0862 3.07289L13.9328 3.60508C14.2695 3.06948 14.8322 2.6938 15.4994 2.6938V1.6938ZM17.913 3.07151C17.426 2.2996 16.5692 1.6938 15.4994 1.6938V2.6938C16.1665 2.6938 16.7293 3.06948 17.0672 3.60508L17.913 3.07151ZM18.3967 3.83829L17.913 3.07151L17.0672 3.60508L17.551 4.37187L18.3967 3.83829ZM17.0672 4.60508H17.9739V3.60508H17.0672V4.60508ZM13.9328 4.60508H17.0672V3.60508H13.9328V4.60508ZM13.0279 4.60508H13.9328V3.60508H13.0279V4.60508ZM13.0862 3.07289L12.6046 3.83899L13.4512 4.37118L13.9328 3.60508L13.0862 3.07289ZM3.65711 11.4941C3.65711 9.69134 5.08803 8.2602 6.80049 8.2602V7.2602C4.51641 7.2602 2.65711 9.15859 2.65711 11.4941H3.65711ZM3.65711 35.0736V11.4941H2.65711V35.0736H3.65711ZM6.80049 38.3074C5.08822 38.3074 3.65711 36.8752 3.65711 35.0736H2.65711C2.65711 37.4078 4.51642 39.3074 6.80049 39.3074V38.3074ZM24.1983 38.3074H6.80049V39.3074H24.1983V38.3074ZM27.3417 35.0736C27.3417 36.8763 25.9107 38.3074 24.1983 38.3074V39.3074C26.4824 39.3074 28.3417 37.4091 28.3417 35.0736H27.3417ZM27.3417 34.5736V35.0736H28.3417V34.5736H27.3417ZM27.8429 34.0736H27.8417V35.0736H27.8429V34.0736ZM27.3429 11.4941V34.5736H28.3429V11.4941H27.3429ZM24.1995 8.2602C25.9118 8.2602 27.3429 9.6924 27.3429 11.4941H28.3429C28.3429 9.15983 26.4836 7.2602 24.1995 7.2602V8.2602ZM23.1331 8.2602H24.1995V7.2602H23.1331V8.2602ZM18.9176 12.2278C21.4217 12.2278 23.4407 10.2594 23.6316 7.79886L22.6346 7.72153C22.4823 9.68463 20.8763 11.2278 18.9176 11.2278V12.2278ZM12.0824 12.2278H18.9176V11.2278H12.0824V12.2278ZM7.36842 7.79886C7.55926 10.2594 9.57834 12.2278 12.0824 12.2278V11.2278C10.1237 11.2278 8.51768 9.68463 8.36543 7.72153L7.36842 7.79886ZM6.80049 8.2602H7.86693V7.2602H6.80049V8.2602ZM24.1983 40.3074C26.8701 40.3074 29.0427 38.2369 29.3133 35.6251L28.3186 35.5221C28.0984 37.648 26.3342 39.3074 24.1983 39.3074V40.3074ZM6.80049 40.3074H24.1983V39.3074H6.80049V40.3074ZM1.65711 35.0736C1.65711 37.9388 3.94305 40.3074 6.80049 40.3074V39.3074C4.51633 39.3074 2.65711 37.4077 2.65711 35.0736H1.65711ZM1.65711 11.4941V35.0736H2.65711V11.4941H1.65711ZM6.80049 6.2602C3.94324 6.2602 1.65711 8.62742 1.65711 11.4941H2.65711C2.65711 9.15868 4.51633 7.2602 6.80049 7.2602V6.2602ZM8.36954 6.2602H6.80049V7.2602H8.36954V6.2602ZM8.89338 6.2602H8.36954V7.2602H8.89338V6.2602ZM9.36846 7.30673L9.39284 6.78346L8.39392 6.73693L8.36954 7.2602L9.36846 7.30673ZM9.3585 7.42183C9.36192 7.39412 9.36626 7.35398 9.36846 7.30673L8.36954 7.26019C8.36893 7.27335 8.36763 7.28642 8.36603 7.29938L9.3585 7.42183ZM9.35146 7.47391C9.35286 7.46412 9.35588 7.44305 9.3585 7.42184L8.36603 7.29938C8.36476 7.30967 8.36306 7.32163 8.36152 7.33239L9.35146 7.47391ZM9.35083 7.47834C9.35096 7.47737 9.35115 7.47606 9.35145 7.47396L8.36153 7.33233C8.36126 7.33421 8.36095 7.3364 8.36067 7.33836L9.35083 7.47834ZM9.35002 7.48429C9.34996 7.48477 9.35017 7.48302 9.35082 7.47838L8.36068 7.33832C8.3591 7.34951 8.35803 7.35782 8.35729 7.36393L9.35002 7.48429ZM12.0824 10.2278C10.5974 10.2278 9.3571 8.99295 9.35365 7.42301L8.35366 7.42521C8.35827 9.52672 10.0263 11.2278 12.0824 11.2278V10.2278ZM18.9176 10.2278H12.0824V11.2278H18.9176V10.2278ZM21.6463 7.42253C21.6432 8.9927 20.4028 10.2278 18.9176 10.2278V11.2278C20.9739 11.2278 22.6421 9.52638 22.6463 7.42456L21.6463 7.42253ZM21.6493 7.4788C21.6499 7.48308 21.6501 7.48449 21.65 7.48369L22.6427 7.3634C22.642 7.35722 22.6409 7.3489 22.6393 7.33779L21.6493 7.4788ZM21.6486 7.47415L21.6494 7.47937L22.6392 7.33721L22.6385 7.33199L21.6486 7.47415ZM21.6416 7.42259C21.6442 7.44365 21.6473 7.46477 21.6487 7.47427L22.6385 7.33188C22.6369 7.32117 22.6352 7.30929 22.634 7.29919L21.6416 7.42259ZM21.6315 7.30672C21.6338 7.35429 21.6381 7.39463 21.6416 7.42256L22.634 7.29921C22.6324 7.28632 22.6311 7.27335 22.6305 7.26021L21.6315 7.30672ZM21.6072 6.78346L21.6315 7.30673L22.6305 7.2602L22.6061 6.73693L21.6072 6.78346ZM22.6305 6.2602H22.1066V7.2602H22.6305V6.2602ZM24.1995 6.2602H22.6305V7.2602H24.1995V6.2602ZM29.3429 11.4941C29.3429 8.62887 27.057 6.2602 24.1995 6.2602V7.2602C26.4837 7.2602 28.3429 9.15992 28.3429 11.4941H29.3429ZM29.3429 35.0736V11.4941H28.3429V35.0736H29.3429ZM29.3429 35.5736V35.0736H28.3429V35.5736H29.3429ZM28.8159 36.0736H28.8429V35.0736H28.8159V36.0736Z" fill="white"/>
<path id="Path" d="M10.9714 22.822C11.0889 22.9395 11.2432 22.9988 11.3976 22.9988C11.5519 22.9988 11.7062 22.9395 11.8237 22.822C12.0588 22.587 12.0588 22.2049 11.8237 21.9699L10.3529 20.4996L11.8237 19.0292C12.0588 18.7942 12.0588 18.4121 11.8237 18.1771C11.5875 17.941 11.2064 17.941 10.9702 18.1771L9.50059 19.6475L8.0298 18.1783C7.79357 17.9433 7.41251 17.9433 7.17628 18.1783C6.94124 18.4133 6.94124 18.7954 7.17628 19.0304L8.64708 20.5007L7.17747 21.9711C6.94124 22.2061 6.94124 22.5882 7.17747 22.8232C7.29499 22.9407 7.44931 23 7.60363 23C7.75795 23 7.91227 22.9407 8.0298 22.8232L9.50059 21.3528L10.9714 22.822Z" fill="white"/>
<path id="Path_2" d="M21.3535 30.5001L22.8229 29.0294C23.059 28.7944 23.059 28.4122 22.8229 28.1772C22.5879 27.9409 22.2057 27.9409 21.9707 28.1772L20.5001 29.6479L19.0296 28.1772C18.7934 27.9421 18.4124 27.9421 18.1763 28.1772C17.9412 28.4134 17.9412 28.7944 18.1763 29.0306L19.6468 30.5001L18.1774 31.9709C17.9412 32.2059 17.9412 32.5881 18.1774 32.8231C18.2949 32.9406 18.4492 33 18.6035 33C18.7578 33 18.9121 32.9406 19.0296 32.8231L20.499 31.3524L21.9695 32.8231C22.0882 32.9406 22.2413 33 22.3956 33C22.5499 33 22.7042 32.9406 22.8217 32.8231C23.0567 32.5881 23.0567 32.2059 22.8217 31.9709L21.3535 30.5001Z" fill="white"/>
<path id="Path_3" d="M18.6929 19.3214L20.7575 19.0481C20.1427 21.8412 18.4653 23.4577 15.5519 24.0313C12.8359 24.5669 11.2592 26.3243 10.4217 27.9923C9.07256 28.0708 8 29.1529 8 30.4888C8 31.8762 9.15303 33 10.5764 33C11.9998 33 13.1528 31.8762 13.1528 30.4888C13.1528 29.7081 12.7794 29.0181 12.2047 28.5585C12.8095 27.4396 13.9085 26.2054 15.9203 25.8084C19.7214 25.0595 21.9709 22.7665 22.6587 19.0114L25 19.3214L21.8477 14L18.6929 19.3214Z" stroke="white"/>
</g>
</svg>
