<svg width="42" height="45" viewBox="0 0 42 45" fill="none" xmlns="http://www.w3.org/2000/svg">
<path fill-rule="evenodd" clip-rule="evenodd" d="M20.5 41C31.8218 41 41 31.8218 41 20.5C41 9.17816 31.8218 0 20.5 0C9.17816 0 0 9.17816 0 20.5C0 31.8218 9.17816 41 20.5 41Z" fill="black"/>
<path d="M25.7702 22.7226C26.301 23.2377 26.8611 23.7223 27.3372 24.2893C27.5475 24.5413 27.7465 24.8012 27.8988 25.0937C28.1146 25.5093 27.9192 25.9667 27.5442 25.9916L25.2133 25.9905C24.6121 26.0401 24.1325 25.7995 23.7292 25.3909C23.4065 25.0642 23.1077 24.7165 22.7973 24.3787C22.6701 24.2407 22.537 24.1108 22.3779 24.0081C22.0597 23.8028 21.7835 23.8656 21.6017 24.1955C21.4165 24.531 21.3744 24.9025 21.3563 25.2765C21.3313 25.822 21.1654 25.9655 20.614 25.9904C19.4358 26.0457 18.3175 25.8685 17.2787 25.2777C16.3628 24.7568 15.6526 24.0215 15.0344 23.1891C13.8309 21.5682 12.9092 19.787 12.0808 17.956C11.8943 17.5435 12.0307 17.322 12.4886 17.3142C13.2491 17.2995 14.0094 17.3005 14.7707 17.3131C15.0797 17.3176 15.2843 17.4938 15.4037 17.784C15.8151 18.7895 16.3185 19.7461 16.9504 20.6329C17.1186 20.8689 17.2902 21.105 17.5345 21.2712C17.8049 21.4552 18.0107 21.3942 18.1378 21.0949C18.2185 20.9051 18.2539 20.7007 18.272 20.4974C18.3323 19.7981 18.3402 19.1 18.2346 18.4032C18.1697 17.9683 17.9233 17.6867 17.4867 17.6045C17.2639 17.5625 17.297 17.4801 17.4049 17.3537C17.5923 17.1357 17.7685 17 18.1198 17H20.7541C21.1688 17.0814 21.2609 17.2665 21.3177 17.6813L21.3199 20.5898C21.3154 20.7504 21.4006 21.2269 21.6916 21.3332C21.9244 21.4089 22.0779 21.2237 22.2177 21.0769C22.8484 20.4115 23.2986 19.6252 23.7007 18.8109C23.8792 18.4529 24.0326 18.081 24.1814 17.7095C24.2916 17.4338 24.4645 17.2982 24.7769 17.3042L27.3122 17.3064C27.3874 17.3064 27.4635 17.3075 27.5363 17.3199C27.9635 17.3923 28.0806 17.575 27.9486 17.9896C27.7407 18.6402 27.3362 19.1824 26.9407 19.7271C26.5179 20.3086 26.0656 20.8702 25.6464 21.4552C25.2611 21.9894 25.2917 22.2587 25.7702 22.7226Z" fill="white"/>
</svg>
